<svg width="1130" height="1202" viewBox="0 0 1130 1202" fill="none" xmlns="http://www.w3.org/2000/svg">
<g filter="url(#filter0_d)">
<rect x="103" y="391" width="1006" height="530" fill="black"/>
<path d="M543.36 733C541.44 733 539.712 732.328 538.176 730.984C536.832 729.448 536.16 727.72 536.16 725.8V538.6C536.16 536.488 536.832 534.76 538.176 533.416C539.712 532.072 541.44 531.4 543.36 531.4H621.696C646.848 531.4 666.432 537.16 680.448 548.68C694.656 560.008 701.76 576.136 701.76 597.064C701.76 610.504 698.592 621.928 692.256 631.336C685.92 640.744 677.184 647.944 666.048 652.936L705.504 723.784C706.08 724.936 706.368 725.992 706.368 726.952C706.368 728.488 705.696 729.928 704.352 731.272C703.2 732.424 701.856 733 700.32 733H662.016C656.448 733 652.512 730.408 650.208 725.224L617.376 661.864H588V725.8C588 727.912 587.232 729.64 585.696 730.984C584.352 732.328 582.624 733 580.512 733H543.36ZM621.12 620.968C629.952 620.968 636.672 618.856 641.28 614.632C645.888 610.216 648.192 604.168 648.192 596.488C648.192 588.808 645.888 582.76 641.28 578.344C636.864 573.736 630.144 571.432 621.12 571.432H588V620.968H621.12Z" fill="#0491BE"/>
<path d="M798.645 735.88C777.333 735.88 760.341 729.736 747.669 717.448C735.189 704.968 728.565 687.496 727.797 665.032L727.509 657.832L727.797 650.632C728.757 628.744 735.477 611.56 747.957 599.08C760.629 586.6 777.525 580.36 798.645 580.36C821.301 580.36 838.773 587.272 851.061 601.096C863.541 614.92 869.781 633.352 869.781 656.392V662.44C869.781 664.36 869.109 665.992 867.765 667.336C866.421 668.68 864.693 669.352 862.581 669.352H766.965V671.656C767.349 682.216 770.229 691.144 775.605 698.44C781.173 705.544 788.757 709.096 798.357 709.096C809.685 709.096 818.805 704.68 825.717 695.848C827.445 693.736 828.789 692.392 829.749 691.816C830.901 691.24 832.533 690.952 834.645 690.952H859.413C861.141 690.952 862.581 691.528 863.733 692.68C865.077 693.64 865.749 694.888 865.749 696.424C865.749 701.032 862.965 706.504 857.397 712.84C852.021 718.984 844.245 724.36 834.069 728.968C823.893 733.576 812.085 735.88 798.645 735.88ZM830.613 645.16V644.296C830.613 632.968 827.733 623.848 821.973 616.936C816.405 610.024 808.629 606.568 798.645 606.568C788.661 606.568 780.885 610.024 775.317 616.936C769.749 623.848 766.965 632.968 766.965 644.296V645.16H830.613ZM921.236 787.72C919.7 787.72 918.356 787.144 917.204 785.992C916.052 784.84 915.476 783.496 915.476 781.96C915.476 780.232 915.86 778.696 916.628 777.352L939.092 724.072L883.796 593.608C883.028 591.88 882.644 590.536 882.644 589.576C882.836 587.848 883.508 586.408 884.66 585.256C885.812 583.912 887.252 583.24 888.98 583.24H912.308C915.956 583.24 918.548 585.064 920.084 588.712L958.388 682.888L997.844 588.712C999.38 585.064 1001.97 583.24 1005.62 583.24H1028.66C1030.2 583.24 1031.54 583.816 1032.69 584.968C1034.04 586.12 1034.71 587.464 1034.71 589C1034.71 590.344 1034.32 591.88 1033.56 593.608L952.052 782.248C950.324 785.896 947.636 787.72 943.988 787.72H921.236Z" fill="#0491BE"/>
<path d="M266.869 902.395C261.632 903.714 256.902 903.359 252.678 901.329C248.89 898.571 246.336 894.573 245.017 889.337L235.344 850.937C233.732 844.537 233.867 838.934 235.75 834.128C237.634 829.323 241.697 823.349 247.942 816.207L440.731 597.798L167.479 496.786C158.743 494.037 152.407 490.992 148.472 487.652C144.537 484.312 141.763 479.442 140.151 473.042L130.478 434.642C129.159 429.405 129.588 424.966 131.764 421.324C134.375 416.954 138.299 414.109 143.536 412.79C148.772 411.471 156.487 412.621 166.68 416.241L489.078 535.501C500.146 540.138 508.158 544.926 513.115 549.865C518.653 554.657 522.449 561.126 524.5 569.271L528.238 584.108C530.29 592.253 530.012 599.748 527.405 606.592C524.798 613.437 519.937 621.158 512.822 629.756L285.616 888.391C278.354 896.408 272.105 901.076 266.869 902.395Z" fill="#FCFFFC"/>
<path d="M531.6 878.9C525.6 878.9 520.5 877.1 516.3 873.5C512.7 869.9 510.9 864.8 510.9 858.2V824C510.9 818 512.7 813.2 516.3 809.6C520.5 805.4 525.6 803.3 531.6 803.3H1053.6C1059.6 803.3 1064.4 805.4 1068 809.6C1072.2 813.2 1074.3 818 1074.3 824V858.2C1074.3 864.8 1072.5 869.9 1068.9 873.5C1065.3 877.1 1060.2 878.9 1053.6 878.9H531.6Z" fill="#FFFDFD"/>
</g>
<defs>
<filter id="filter0_d" x="99" y="391" width="1014" height="538" filterUnits="userSpaceOnUse" color-interpolation-filters="sRGB">
<feFlood flood-opacity="0" result="BackgroundImageFix"/>
<feColorMatrix in="SourceAlpha" type="matrix" values="0 0 0 0 0 0 0 0 0 0 0 0 0 0 0 0 0 0 127 0" result="hardAlpha"/>
<feOffset dy="4"/>
<feGaussianBlur stdDeviation="2"/>
<feComposite in2="hardAlpha" operator="out"/>
<feColorMatrix type="matrix" values="0 0 0 0 0 0 0 0 0 0 0 0 0 0 0 0 0 0 0.25 0"/>
<feBlend mode="normal" in2="BackgroundImageFix" result="effect1_dropShadow"/>
<feBlend mode="normal" in="SourceGraphic" in2="effect1_dropShadow" result="shape"/>
</filter>
</defs>
</svg>
