<svg width="586" height="457" viewBox="0 0 586 457" fill="none" xmlns="http://www.w3.org/2000/svg">
<rect width="586" height="457" fill="#0B0B0B"/>
<path d="M279.68 286C278.72 286 277.856 285.664 277.088 284.992C276.416 284.224 276.08 283.36 276.08 282.4V188.8C276.08 187.744 276.416 186.88 277.088 186.208C277.856 185.536 278.72 185.2 279.68 185.2H318.848C331.424 185.2 341.216 188.08 348.224 193.84C355.328 199.504 358.88 207.568 358.88 218.032C358.88 224.752 357.296 230.464 354.128 235.168C350.96 239.872 346.592 243.472 341.024 245.968L360.752 281.392C361.04 281.968 361.184 282.496 361.184 282.976C361.184 283.744 360.848 284.464 360.176 285.136C359.6 285.712 358.928 286 358.16 286H339.008C336.224 286 334.256 284.704 333.104 282.112L316.688 250.432H302V282.4C302 283.456 301.616 284.32 300.848 284.992C300.176 285.664 299.312 286 298.256 286H279.68ZM318.56 229.984C322.976 229.984 326.336 228.928 328.64 226.816C330.944 224.608 332.096 221.584 332.096 217.744C332.096 213.904 330.944 210.88 328.64 208.672C326.432 206.368 323.072 205.216 318.56 205.216H302V229.984H318.56Z" fill="#10C9D5"/>
<path d="M393.403 286.96C386.299 286.96 380.635 284.912 376.411 280.816C372.251 276.656 370.043 270.832 369.787 263.344L369.691 260.944L369.787 258.544C370.107 251.248 372.347 245.52 376.507 241.36C380.731 237.2 386.363 235.12 393.403 235.12C400.955 235.12 406.779 237.424 410.875 242.032C415.035 246.64 417.115 252.784 417.115 260.464V262.48C417.115 263.12 416.891 263.664 416.443 264.112C415.995 264.56 415.419 264.784 414.715 264.784H382.843V265.552C382.971 269.072 383.931 272.048 385.723 274.48C387.579 276.848 390.107 278.032 393.307 278.032C397.083 278.032 400.123 276.56 402.427 273.616C403.003 272.912 403.451 272.464 403.771 272.272C404.155 272.08 404.699 271.984 405.403 271.984H413.659C414.235 271.984 414.715 272.176 415.099 272.56C415.547 272.88 415.771 273.296 415.771 273.808C415.771 275.344 414.843 277.168 412.987 279.28C411.195 281.328 408.603 283.12 405.211 284.656C401.819 286.192 397.883 286.96 393.403 286.96ZM404.059 256.72V256.432C404.059 252.656 403.099 249.616 401.179 247.312C399.323 245.008 396.731 243.856 393.403 243.856C390.075 243.856 387.483 245.008 385.627 247.312C383.771 249.616 382.843 252.656 382.843 256.432V256.72H404.059ZM434.266 304.24C433.754 304.24 433.306 304.048 432.922 303.664C432.538 303.28 432.346 302.832 432.346 302.32C432.346 301.744 432.474 301.232 432.73 300.784L440.218 283.024L421.786 239.536C421.53 238.96 421.402 238.512 421.402 238.192C421.466 237.616 421.69 237.136 422.074 236.752C422.458 236.304 422.938 236.08 423.514 236.08H431.29C432.506 236.08 433.37 236.688 433.882 237.904L446.65 269.296L459.802 237.904C460.314 236.688 461.178 236.08 462.394 236.08H470.074C470.586 236.08 471.034 236.272 471.418 236.656C471.866 237.04 472.09 237.488 472.09 238C472.09 238.448 471.962 238.96 471.706 239.536L444.538 302.416C443.962 303.632 443.066 304.24 441.85 304.24H434.266Z" fill="#FFFDFD"/>
<path d="M137.4 309.7C135.6 309.7 134.1 309.2 132.9 308.2C131.9 307 131.4 305.5 131.4 303.7V290.5C131.4 288.3 131.9 286.5 132.9 285.1C133.9 283.7 135.7 282.1 138.3 280.3L218.4 225.4L138.3 170.5C135.7 168.9 133.9 167.4 132.9 166C131.9 164.6 131.4 162.8 131.4 160.6V147.4C131.4 145.6 131.9 144.2 132.9 143.2C134.1 142 135.6 141.4 137.4 141.4C139.2 141.4 141.6 142.4 144.6 144.4L239.1 209.2C242.3 211.6 244.5 213.8 245.7 215.8C247.1 217.8 247.8 220.2 247.8 223V228.1C247.8 230.9 247.1 233.3 245.7 235.3C244.3 237.3 242.1 239.4 239.1 241.6L144.6 306.7C141.6 308.7 139.2 309.7 137.4 309.7Z" fill="#22C1CB"/>
<path d="M282.555 342.808C280.635 342.808 279.003 342.232 277.659 341.08C276.507 339.928 275.931 338.296 275.931 336.184V325.24C275.931 323.32 276.507 321.784 277.659 320.632C279.003 319.288 280.635 318.616 282.555 318.616H449.595C451.515 318.616 453.051 319.288 454.203 320.632C455.547 321.784 456.219 323.32 456.219 325.24V336.184C456.219 338.296 455.643 339.928 454.491 341.08C453.339 342.232 451.707 342.808 449.595 342.808H282.555Z" fill="#23C2E4"/>
</svg>
