<svg width="46" height="221" viewBox="0 0 46 221" fill="none" xmlns="http://www.w3.org/2000/svg">
<path d="M4.84 51C4.36 51 3.928 50.832 3.544 50.496C3.208 50.112 3.04 49.68 3.04 49.2V2.4C3.04 1.872 3.208 1.44 3.544 1.104C3.928 0.767997 4.36 0.599997 4.84 0.599997H24.424C30.712 0.599997 35.608 2.04 39.112 4.92C42.664 7.752 44.44 11.784 44.44 17.016C44.44 20.376 43.648 23.232 42.064 25.584C40.48 27.936 38.296 29.736 35.512 30.984L45.376 48.696C45.52 48.984 45.592 49.248 45.592 49.488C45.592 49.872 45.424 50.232 45.088 50.568C44.8 50.856 44.464 51 44.08 51H34.504C33.112 51 32.128 50.352 31.552 49.056L23.344 33.216H16V49.2C16 49.728 15.808 50.16 15.424 50.496C15.088 50.832 14.656 51 14.128 51H4.84ZM24.28 22.992C26.488 22.992 28.168 22.464 29.32 21.408C30.472 20.304 31.048 18.792 31.048 16.872C31.048 14.952 30.472 13.44 29.32 12.336C28.216 11.184 26.536 10.608 24.28 10.608H16V22.992H24.28Z" fill="#25D8E3"/>
<path d="M5.92 136C5.44 136 5.032 135.856 4.696 135.568C4.408 135.232 4.264 134.824 4.264 134.344V87.328C4.264 86.8 4.408 86.392 4.696 86.104C5.032 85.768 5.44 85.6 5.92 85.6H35.656C36.136 85.6 36.52 85.768 36.808 86.104C37.144 86.392 37.312 86.8 37.312 87.328V90.064C37.312 90.544 37.168 90.952 36.88 91.288C36.592 91.576 36.184 91.72 35.656 91.72H11.176V107.488H34.072C34.552 107.488 34.936 107.656 35.224 107.992C35.56 108.28 35.728 108.688 35.728 109.216V111.88C35.728 112.36 35.56 112.768 35.224 113.104C34.936 113.392 34.552 113.536 34.072 113.536H11.176V129.88H36.232C36.76 129.88 37.168 130.024 37.456 130.312C37.744 130.6 37.888 131.008 37.888 131.536V134.344C37.888 134.824 37.72 135.232 37.384 135.568C37.096 135.856 36.712 136 36.232 136H5.92ZM19.384 221C18.904 221 18.496 220.856 18.16 220.568C17.872 220.232 17.728 219.824 17.728 219.344V202.352L0.376 172.976C0.376 172.88 0.352 172.736 0.304 172.544C0.208 172.352 0.16 172.184 0.16 172.04C0.16 171.656 0.304 171.32 0.592 171.032C0.88 170.744 1.216 170.6 1.6 170.6H5.344C6.16 170.6 6.784 171.008 7.216 171.824L21.256 195.152L35.296 171.824C35.824 171.008 36.472 170.6 37.24 170.6H40.912C41.344 170.6 41.704 170.744 41.992 171.032C42.28 171.32 42.424 171.656 42.424 172.04C42.424 172.28 42.328 172.592 42.136 172.976L24.856 202.352V219.344C24.856 219.824 24.688 220.232 24.352 220.568C24.016 220.856 23.608 221 23.128 221H19.384Z" fill="black"/>
</svg>
