<svg width="885" height="288" viewBox="0 0 885 288" fill="none" xmlns="http://www.w3.org/2000/svg">
<path d="M66.64 16.712C67.984 16.904 70 17.288 72.688 17.864C75.376 18.44 78.064 19.208 80.752 20.168C83.44 21.128 85.84 22.28 87.952 23.624C90.064 24.968 91.12 26.504 91.12 28.232C91.12 30.344 89.776 31.88 87.088 32.84C84.4 33.608 80.944 34.184 76.72 34.568C72.688 34.952 68.272 35.24 63.472 35.432C58.864 35.432 54.448 35.624 50.224 36.008C46.192 36.2 42.832 36.776 40.144 37.736C37.456 38.696 36.112 40.136 36.112 42.056V97.64C36.112 119.144 35.92 140.648 35.536 162.152C35.344 183.464 34.48 204.968 32.944 226.664C37.936 226.088 42.832 225.32 47.632 224.36C52.624 223.208 57.616 222.632 62.608 222.632C63.568 222.632 65.104 223.016 67.216 223.784C69.52 224.36 70.672 225.128 70.672 226.088C70.672 226.664 69.232 227.24 66.352 227.816C63.472 228.392 60.016 228.968 55.984 229.544C51.952 230.12 47.728 230.696 43.312 231.272C39.472 231.656 36.208 231.944 33.52 232.136C39.472 231.752 45.424 231.176 51.376 230.408C57.712 229.64 63.952 229.064 70.096 228.68L70.384 233.288C72.304 232.904 74.32 232.712 76.432 232.712C79.312 232.712 82.096 233.096 84.784 233.864C87.472 234.824 88.816 236.456 88.816 238.76C88.816 240.872 87.472 242.696 84.784 244.232C82.288 245.96 80.272 247.304 78.736 248.264H77.008C67.792 248.264 58.672 248.936 49.648 250.28C40.816 251.624 31.792 252.296 22.576 252.296H20.848L5.872 252.008C6.256 234.728 6.832 217.544 7.6 200.456C8.56 184.136 9.04 167.72 9.04 151.208C8.656 167.912 8.08 184.328 7.312 200.456C6.736 217.544 5.968 234.824 5.008 252.296L14.8 252.872C18.064 253.064 21.328 253.16 24.592 253.16C33.04 253.16 41.392 252.68 49.648 251.72C57.904 250.952 66.256 250.568 74.704 250.568C71.056 252.488 67.024 253.928 62.608 254.888C58.384 256.04 53.968 256.904 49.36 257.48C44.944 258.056 40.432 258.44 35.824 258.632C31.408 258.824 27.184 258.92 23.152 258.92C19.312 258.92 15.472 258.824 11.632 258.632C7.984 258.44 4.24 258.248 0.4 258.056V226.952H3.28C3.088 223.688 2.896 220.52 2.704 217.448C2.704 214.376 2.704 211.208 2.704 207.944C2.704 192.968 3.184 178.184 4.144 163.592C5.104 148.808 5.584 133.928 5.584 118.952C5.584 113.384 5.488 108.008 5.296 102.824C5.104 97.448 4.816 91.976 4.432 86.408L3.28 87.272L2.704 86.696C2.704 98.216 2.512 109.64 2.128 120.968C1.744 129.608 1.36 138.344 0.976 147.176C1.36 124.136 1.456 101.192 1.264 78.344C1.264 53 1.84 27.368 2.992 1.44799C7.792 1.25599 12.496 1.06398 17.104 0.871984C21.712 0.487989 26.416 0.295992 31.216 0.295992C39.856 0.295992 48.4 0.87199 56.848 2.02399C65.488 2.98399 74.128 3.46399 82.768 3.46399L82.192 5.192C82.384 5.95999 82.576 6.82398 82.768 7.78398C82.96 8.55198 83.056 9.31998 83.056 10.088C83.056 11.816 82 12.872 79.888 13.256C77.968 13.64 76.528 13.832 75.568 13.832L66.64 13.544V16.712ZM26.896 227.24C27.472 215.912 27.952 204.68 28.336 193.544C28.72 182.408 29.296 171.176 30.064 159.848C28.528 165.992 27.568 172.136 27.184 178.28C26.8 184.232 26.608 190.184 26.608 196.136C26.608 199.976 26.608 203.912 26.608 207.944C26.8 211.976 26.896 215.912 26.896 219.752V227.24ZM17.68 232.424L23.728 233.864L23.152 232.136L17.68 232.424ZM0.976 154.664C0.976 152.168 0.976 149.672 0.976 147.176C0.976 149.672 0.976 152.168 0.976 154.664ZM475.029 235.88C455.253 235.88 439.413 229.832 427.509 217.736C415.797 205.448 409.365 188.744 408.213 167.624L407.925 157.832L408.213 148.328C409.557 127.592 416.085 111.08 427.797 98.792C439.701 86.504 455.349 80.36 474.741 80.36C496.053 80.36 512.565 87.176 524.277 100.808C535.989 114.248 541.844 132.488 541.844 155.528V160.424C541.844 162.344 541.173 163.976 539.829 165.32C538.677 166.472 537.141 167.048 535.221 167.048H435.573V169.64C436.149 182.12 439.893 192.776 446.805 201.608C453.909 210.248 463.221 214.568 474.741 214.568C483.573 214.568 490.773 212.84 496.341 209.384C502.101 205.736 506.325 201.992 509.013 198.152C510.741 195.848 511.989 194.504 512.757 194.12C513.717 193.544 515.349 193.256 517.653 193.256H531.765C533.493 193.256 534.933 193.736 536.085 194.696C537.237 195.656 537.812 197 537.812 198.728C537.812 202.952 535.125 208.04 529.749 213.992C524.565 219.944 517.173 225.128 507.573 229.544C498.165 233.768 487.317 235.88 475.029 235.88ZM514.485 147.176V146.312C514.485 133.064 510.837 122.312 503.541 114.056C496.437 105.608 486.837 101.384 474.741 101.384C462.645 101.384 453.045 105.608 445.941 114.056C439.029 122.312 435.573 133.064 435.573 146.312V147.176H514.485ZM596.864 287.72C595.328 287.72 593.984 287.144 592.832 285.992C591.68 284.84 591.104 283.496 591.104 281.96C591.104 280.616 591.584 278.888 592.544 276.776L614.72 224.072L559.712 94.184C558.752 91.688 558.272 90.056 558.272 89.288C558.272 87.56 558.848 86.12 560 84.968C561.152 83.816 562.592 83.24 564.32 83.24H578.432C581.504 83.24 583.808 84.872 585.344 88.136L629.12 192.968L674.048 88.136C675.584 84.872 677.984 83.24 681.248 83.24H694.784C696.512 83.24 697.952 83.816 699.104 84.968C700.256 86.12 700.832 87.464 700.832 89C700.832 89.576 700.352 91.304 699.392 94.184L617.6 282.824C616.064 286.088 613.664 287.72 610.4 287.72H596.864ZM875.324 175.112C875.324 182.6 875.708 189.992 876.476 197.288C877.244 204.584 878.108 211.976 879.068 219.464C880.028 226.76 880.988 234.056 881.948 241.352C883.1 248.648 883.868 255.944 884.252 263.24C879.836 264.008 875.42 264.68 871.004 265.256C866.78 266.024 862.46 266.408 858.044 266.408C856.508 266.408 854.012 266.312 850.556 266.12C847.292 266.12 843.452 266.024 839.036 265.832C834.62 265.64 830.012 265.352 825.212 264.968C820.604 264.584 816.38 264.008 812.54 263.24C808.7 262.664 805.436 261.896 802.748 260.936C800.252 260.168 798.908 259.112 798.716 257.768L799.292 256.328C807.356 257.288 815.324 258.152 823.196 258.92C831.068 259.88 838.94 260.552 846.812 260.936C838.94 260.36 831.164 259.496 823.484 258.344C815.804 257.192 808.028 256.04 800.156 254.888L801.596 251.72C800.636 251.528 799.004 251.144 796.7 250.568C794.588 249.992 792.38 249.224 790.076 248.264C787.964 247.496 786.044 246.536 784.316 245.384C782.588 244.424 781.724 243.368 781.724 242.216C781.724 241.064 782.204 240.008 783.164 239.048C784.124 238.088 785.276 237.224 786.62 236.456C788.156 235.88 789.596 235.304 790.94 234.728C792.284 234.344 793.436 233.96 794.396 233.576L822.044 238.184C831.26 239.72 840.572 240.68 849.98 241.064L849.692 240.2C841.052 239.816 832.604 238.76 824.348 237.032C816.284 235.304 808.124 233.672 799.868 232.136C802.172 231.752 804.476 231.464 806.78 231.272C809.084 230.888 811.388 230.696 813.692 230.696C819.644 230.696 825.5 231.08 831.26 231.848C837.212 232.424 843.068 233.288 848.828 234.44C847.1 229.832 845.756 224.264 844.796 217.736C843.836 211.016 843.068 204.104 842.492 197C841.916 189.896 841.532 182.888 841.34 175.976C841.148 169.064 841.052 163.112 841.052 158.12C841.052 143.144 841.436 128.168 842.204 113.192C843.164 98.216 843.644 83.24 843.644 68.264C843.644 64.616 843.548 61.064 843.356 57.608C843.356 54.152 843.26 50.6 843.068 46.952C834.428 46.952 825.788 46.472 817.148 45.512C808.7 44.36 800.156 43.784 791.516 43.784V42.632C791.516 41.288 791.42 40.232 791.228 39.464C791.036 38.504 790.94 37.736 790.94 37.16C790.94 35.432 792.092 34.376 794.396 33.992C796.7 33.608 798.716 33.416 800.444 33.416H801.596L808.508 33.704V30.536C807.164 30.344 805.052 30.056 802.172 29.672C799.292 29.096 796.316 28.328 793.244 27.368C790.364 26.408 787.772 25.352 785.468 24.2C783.356 22.856 782.3 21.32 782.3 19.592C782.3 17.48 784.7 15.848 789.5 14.696C794.3 13.544 799.772 12.68 805.916 12.104C812.06 11.528 818.012 11.24 823.772 11.24C829.532 11.048 833.276 10.952 835.004 10.952C841.724 10.952 848.444 11.048 855.164 11.24C862.076 11.24 868.892 11.336 875.612 11.528C876.572 22.472 877.34 33.32 877.916 44.072C878.684 54.824 879.068 65.672 879.068 76.616C879.068 93.128 878.396 109.544 877.052 125.864C875.9 142.184 875.324 158.6 875.324 175.112ZM841.916 162.152C841.916 163.688 841.916 166.472 841.916 170.504C842.108 174.536 842.3 179.24 842.492 184.616C842.876 189.8 843.26 195.272 843.644 201.032C844.028 206.792 844.508 212.072 845.084 216.872C845.852 221.672 846.716 225.704 847.676 228.968C848.636 232.232 849.788 234.056 851.132 234.44C849.212 224.456 847.58 214.568 846.236 204.776C844.892 194.792 844.22 184.712 844.22 174.536C844.22 161.864 844.412 149.384 844.796 137.096C845.18 124.808 845.372 112.328 845.372 99.656H843.932C843.548 110.024 843.068 120.488 842.492 131.048C842.108 141.416 841.916 151.784 841.916 162.152ZM848.252 153.224C848.06 155.72 847.964 158.12 847.964 160.424V167.624C847.964 169.16 847.964 171.848 847.964 175.688C848.156 179.336 848.348 183.656 848.54 188.648C848.732 193.448 848.924 198.44 849.116 203.624C849.5 208.808 849.98 213.704 850.556 218.312C851.132 222.728 851.804 226.472 852.572 229.544C853.532 232.424 854.588 234.056 855.74 234.44C853.436 221 851.612 207.56 850.268 194.12C848.924 180.68 848.252 167.048 848.252 153.224ZM877.628 249.704C876.668 237.608 875.228 225.512 873.308 213.416C871.58 201.32 870.62 189.128 870.428 176.84C870.236 178.184 870.14 179.432 870.14 180.584V184.328C870.14 195.272 871.1 206.216 873.02 217.16C875.132 227.912 876.668 238.76 877.628 249.704ZM850.844 241.352L858.332 241.064L849.98 240.2L850.844 241.352Z" fill="black"/>
<path d="M222.048 233C220.128 233 218.4 232.328 216.864 230.984C215.52 229.448 214.848 227.72 214.848 225.8V38.6C214.848 36.488 215.52 34.76 216.864 33.416C218.4 32.072 220.128 31.4 222.048 31.4H300.384C325.536 31.4 345.12 37.16 359.136 48.68C373.344 60.008 380.448 76.136 380.448 97.064C380.448 110.504 377.28 121.928 370.944 131.336C364.608 140.744 355.872 147.944 344.736 152.936L384.192 223.784C384.768 224.936 385.056 225.992 385.056 226.952C385.056 228.488 384.384 229.928 383.04 231.272C381.888 232.424 380.544 233 379.008 233H340.704C335.136 233 331.2 230.408 328.896 225.224L296.064 161.864H266.688V225.8C266.688 227.912 265.92 229.64 264.384 230.984C263.04 232.328 261.312 233 259.2 233H222.048ZM299.808 120.968C308.64 120.968 315.36 118.856 319.968 114.632C324.576 110.216 326.88 104.168 326.88 96.488C326.88 88.808 324.576 82.76 319.968 78.344C315.552 73.736 308.832 71.432 299.808 71.432H266.688V120.968H299.808Z" fill="#10C9D5"/>
</svg>
