<svg width="163" height="113" viewBox="0 0 163 113" fill="none" xmlns="http://www.w3.org/2000/svg">
<path d="M162.563 106.731C162.562 108.459 162.081 109.899 161.121 111.051C159.968 112.01 158.528 112.49 156.8 112.489L144.128 112.484C142.016 112.483 140.288 112.002 138.945 111.041C137.601 110.081 136.066 108.352 134.339 105.855L81.667 28.9375L28.9309 105.812C27.3939 108.307 25.9531 110.034 24.6088 110.994C23.2643 111.953 21.5361 112.432 19.4242 112.432L6.75215 112.426C5.02415 112.426 3.68035 111.945 2.72075 110.985C1.56923 109.832 0.993832 108.392 0.994552 106.664C0.995272 104.936 1.95623 102.632 3.87743 99.7531L66.1232 9.05904C68.4285 5.988 70.5414 3.87688 72.4619 2.72567C74.3824 1.38247 76.6867 0.711435 79.3747 0.712555L84.2707 0.714595C86.9587 0.715715 89.2624 1.38868 91.1819 2.73348C93.1013 4.07828 95.1164 6.19112 97.2272 9.072L159.685 99.818C161.604 102.699 162.563 105.003 162.563 106.731Z" fill="white"/>
</svg>
