<svg width="1086" height="681" viewBox="0 0 1086 681" fill="none" xmlns="http://www.w3.org/2000/svg">
<circle cx="439.5" cy="391.5" r="91.5" fill="#2C67BF"/>
<path d="M367.048 351.544L509.459 431.018" stroke="#2C67BF" stroke-width="50" stroke-linecap="square"/>
<path d="M364 431.018L515 356.566" stroke="#2C67BF" stroke-width="50" stroke-linecap="square"/>
<path d="M438.253 475.334V309" stroke="#2C67BF" stroke-width="50" stroke-linecap="square"/>
<circle cx="647.5" cy="443.5" r="91.5" fill="#05152E"/>
<path d="M575.048 403.544L717.459 483.018" stroke="#05152E" stroke-width="50" stroke-linecap="square"/>
<path d="M572 483.018L723 408.566" stroke="#05152E" stroke-width="50" stroke-linecap="square"/>
<path d="M646.253 527.334V361" stroke="#05152E" stroke-width="50" stroke-linecap="square"/>
<circle cx="593.5" cy="237.5" r="91.5" fill="#98B5E8"/>
<path d="M521.048 197.544L663.459 277.018" stroke="#98B5E8" stroke-width="50" stroke-linecap="square"/>
<path d="M518 277.018L669 202.566" stroke="#98B5E8" stroke-width="50" stroke-linecap="square"/>
<path d="M592.253 321.334V155" stroke="#98B5E8" stroke-width="50" stroke-linecap="square"/>
<path d="M378.611 424H370.301L394.335 358.545H402.517L426.551 424H418.241L398.682 368.901H398.17L378.611 424ZM381.679 398.432H415.173V405.463H381.679V398.432ZM436.746 424V358.545H458.863C463.998 358.545 468.195 359.472 471.455 361.326C474.737 363.158 477.165 365.641 478.742 368.773C480.319 371.905 481.107 375.399 481.107 379.256C481.107 383.112 480.319 386.617 478.742 389.771C477.187 392.924 474.779 395.438 471.519 397.313C468.259 399.167 464.083 400.094 458.991 400.094H443.138V393.062H458.735C462.251 393.062 465.074 392.455 467.205 391.241C469.335 390.026 470.88 388.386 471.839 386.319C472.819 384.231 473.309 381.876 473.309 379.256C473.309 376.635 472.819 374.291 471.839 372.224C470.88 370.158 469.325 368.538 467.173 367.366C465.021 366.173 462.165 365.577 458.607 365.577H444.673V424H436.746ZM501.801 358.545V424H493.875V358.545H501.801Z" fill="black"/>
</svg>
