<svg width="225" height="84" viewBox="0 0 225 84" fill="none" xmlns="http://www.w3.org/2000/svg">
<path d="M16.9784 25.4294C16.5378 25.4294 16.4346 25.2139 16.6503 24.8767L18.9565 21.9257C19.1721 21.5978 19.7159 21.3823 20.1565 21.3823H59.2688C59.7 21.3823 59.8125 21.7102 59.5969 22.0381L57.7313 24.8767C57.5156 25.2139 56.9625 25.5325 56.6344 25.5325L16.9784 25.4294ZM0.440972 35.5003C0.000349658 35.5003 -0.11215 35.2849 0.112849 34.957L2.40971 31.9966C2.62533 31.6687 3.17846 31.4532 3.61908 31.4532H53.5688C54.0094 31.4532 54.225 31.7811 54.1125 32.109L53.2407 34.7321C53.1282 35.1724 52.6969 35.3879 52.2563 35.3879L0.440972 35.5003ZM26.9533 45.5713C26.5127 45.5713 26.4002 45.2434 26.6252 44.9155L28.1533 42.1799C28.3689 41.852 28.8096 41.5242 29.2502 41.5242H51.1594C51.6 41.5242 51.8157 41.852 51.8157 42.2924L51.6 44.9155C51.6 45.3558 51.1594 45.6837 50.8313 45.6837L26.9533 45.5713ZM140.662 23.4621C133.762 25.2139 129.046 26.5255 122.259 28.2774C120.609 28.7083 120.506 28.8207 119.072 27.1813C117.44 25.317 116.231 24.1179 113.934 23.0218C107.025 19.6304 100.34 20.6141 94.106 24.6612C86.653 29.4765 82.8186 36.5964 82.9311 45.4588C83.0342 54.2182 89.0623 61.4412 97.7154 62.6497C105.168 63.6333 111.403 61.0102 116.343 55.4361C117.328 54.2182 118.2 52.9066 119.297 51.3702H98.156C95.8592 51.3702 95.306 49.9462 96.0748 48.0913C97.4998 44.7 100.125 39.0041 101.662 36.1561C101.897 35.6285 102.281 35.1813 102.768 34.8699C103.255 34.5585 103.822 34.3966 104.4 34.4042H144.271C144.056 37.3646 144.056 40.3156 143.615 43.276C142.48 51.0697 139.391 58.4499 134.634 64.7294C126.75 75.1282 116.447 81.5924 103.415 83.3349C92.6811 84.7588 82.7061 82.6791 73.9499 76.1213C65.8406 69.985 61.2375 61.8815 60.0375 51.8105C58.6125 39.8753 62.1187 29.1486 69.3468 19.7335C77.128 9.55953 87.4217 3.0954 100.022 0.80954C110.315 -1.06412 120.178 0.153756 129.046 6.15883C134.859 9.99983 139.012 15.2461 141.759 21.5978C142.415 22.5815 141.975 23.1342 140.662 23.4714V23.4621ZM176.924 84C166.949 83.7752 157.856 80.9272 150.187 74.36C143.807 68.9872 139.602 61.4782 138.356 53.2345C136.387 40.8684 139.781 29.9168 147.234 20.1738C155.231 9.66258 164.868 4.19149 177.909 1.90563C189.084 -0.0617146 199.602 1.01564 209.127 7.47976C217.78 13.3818 223.152 21.3823 224.577 31.8842C226.433 46.6673 222.168 58.7056 211.977 69.0014C204.749 76.3367 195.871 80.9272 185.681 83.007C182.727 83.5691 179.774 83.6627 176.924 84ZM202.987 39.7816C202.884 38.3483 202.884 37.2522 202.668 36.1561C200.699 25.317 190.724 19.1995 180.318 21.5978C170.127 23.893 163.556 30.3571 161.146 40.6435C159.178 49.1874 163.34 57.8344 171.224 61.3475C177.252 63.9706 183.271 63.6333 189.084 60.6917C197.737 56.1949 202.443 49.1874 202.996 39.7723L202.987 39.7816Z" fill="#57C6F4"/>
</svg>
