<svg width="128" height="128" viewBox="0 0 128 128" fill="none" xmlns="http://www.w3.org/2000/svg">
<g clip-path="url(#clip0_21_36)">
<path d="M41.3481 52.637L31.5986 46.6848C31.4741 46.6088 31.4702 46.4293 31.5913 46.348L47.0238 35.9908L60.5169 27.982C62.0798 27.0543 64.023 27.0478 65.5921 27.965L78.7413 35.6511L94.5053 45.6763C94.628 45.7542 94.6291 45.9328 94.5075 46.0124L85.4187 51.9576L62.7156 39.0483L41.3481 52.637Z" fill="#38BF6E" stroke="#38BF6E"/>
<path d="M30.6644 45.8427L10.9021 34.4478C10.7759 34.3751 10.7673 34.1962 10.8859 34.1117L23.987 24.7802L38.0095 15.9476L59.4942 2.58799C61.0656 1.61089 63.0481 1.58149 64.6478 2.51159L85.4188 14.5887L115.187 32.0894C115.315 32.1649 115.319 32.3492 115.194 32.4299L95.4348 45.1633L63.1184 27.0443C62.8692 26.9046 62.5645 26.9083 62.3188 27.0541L30.6644 45.8427Z" fill="#3DDC84" stroke="#3DDC84"/>
<path d="M95.5715 45.7687L115.664 33.0071C115.792 32.926 115.96 33.0142 115.969 33.1672L116.994 50.3047L117.688 67.1017L117.761 93.2912C117.766 95.0482 116.866 96.6735 115.386 97.579L95.4957 109.752L63.4845 126.436C63.3524 126.505 63.1942 126.407 63.1937 126.256L63.1298 103.449L95.4853 83.9237C95.6049 83.8516 95.6778 83.7209 95.6774 83.5794L95.5715 45.7687Z" fill="#4285F4" stroke="#4285F4"/>
<path d="M63.4832 102.859L63.2917 126.042C63.2905 126.189 63.1379 126.286 63.0066 126.223L48.4894 119.241L33.9515 111.193L11.7672 98.7425C10.1832 97.8535 9.21132 96.1558 9.23306 94.3156L9.52243 69.8276L10.1027 34.7403C10.1052 34.5893 10.2648 34.4936 10.396 34.5644L31.1292 45.7612L31.2632 83.6567C31.2637 83.7987 31.338 83.9294 31.4589 84.0005L63.4832 102.859Z" fill="#093042" stroke="#093042"/>
<path d="M86.0862 52.6369L95.0151 46.5726C95.1438 46.4853 95.3182 46.5754 95.325 46.7328L96.1349 65.4813L95.9609 81.4686C95.9415 83.258 94.9859 84.8955 93.4513 85.7694L80.1375 93.3508L63.5949 101.966C63.4651 102.033 63.3092 101.94 63.3045 101.792L62.957 90.8096L85.5001 77.6134L86.0862 52.6369Z" fill="#3870B2" stroke="#3870B2"/>
<path d="M63.6405 90.0444L63.4313 101.605C63.4286 101.754 63.2728 101.85 63.142 101.783L46.6297 93.3384L32.9977 85.3833C31.473 84.4935 30.5351 82.8472 30.5341 81.0588L30.5254 65.5328L31.2037 46.6819C31.2094 46.5233 31.3854 46.4321 31.5146 46.5208L41.4101 53.3164L41.4101 77.9736L63.6405 90.0444Z" fill="#041619" stroke="#041619"/>
<path d="M62.6366 38.4083C62.9587 38.1939 63.3733 38.1882 63.7003 38.3937L85.2139 51.9134C85.507 52.0976 85.6847 52.4237 85.6831 52.7745L85.5752 77.1307C85.5735 77.4971 85.3767 77.8341 85.0611 78.0111L64.9469 89.2884C64.6621 89.4481 64.3186 89.4558 64.0277 89.3089L42.0327 78.2048C41.6946 78.0342 41.4816 77.6827 41.4833 77.2985L41.5909 52.9549C41.5924 52.6158 41.7614 52.2998 42.0407 52.114L62.6366 38.4083Z" fill="#D6F0FF"/>
</g>
<defs>
<clipPath id="clip0_21_36">
<rect width="128" height="128" fill="white"/>
</clipPath>
</defs>
</svg>
