<svg width="425" height="423" viewBox="0 0 425 423" fill="none" xmlns="http://www.w3.org/2000/svg">
<circle cx="108.5" cy="261.5" r="91.5" fill="#2C67BF"/>
<path d="M36.0477 221.544L178.459 301.018" stroke="#2C67BF" stroke-width="50" stroke-linecap="square"/>
<path d="M33 301.017L184 226.566" stroke="#2C67BF" stroke-width="50" stroke-linecap="square"/>
<path d="M107.253 345.334L107.253 179" stroke="#2C67BF" stroke-width="50" stroke-linecap="square"/>
<circle cx="316.5" cy="313.5" r="91.5" fill="#05152E"/>
<path d="M244.048 273.544L386.459 353.018" stroke="#05152E" stroke-width="50" stroke-linecap="square"/>
<path d="M241 353.017L392 278.566" stroke="#05152E" stroke-width="50" stroke-linecap="square"/>
<path d="M315.253 397.334V231" stroke="#05152E" stroke-width="50" stroke-linecap="square"/>
<circle cx="262.5" cy="107.5" r="91.5" fill="#98B5E8"/>
<path d="M190.048 67.5437L332.459 147.018" stroke="#98B5E8" stroke-width="50" stroke-linecap="square"/>
<path d="M187 147.017L338 72.5658" stroke="#98B5E8" stroke-width="50" stroke-linecap="square"/>
<path d="M261.253 191.334V24.9999" stroke="#98B5E8" stroke-width="50" stroke-linecap="square"/>
<path d="M47.6108 294H39.3011L63.3352 228.545H71.517L95.5511 294H87.2415L67.6818 238.901H67.1705L47.6108 294ZM50.679 268.432H84.1733V275.463H50.679V268.432ZM105.746 294V228.545H127.863C132.998 228.545 137.195 229.472 140.455 231.326C143.737 233.158 146.165 235.641 147.742 238.773C149.319 241.905 150.107 245.399 150.107 249.256C150.107 253.112 149.319 256.617 147.742 259.771C146.187 262.924 143.779 265.438 140.519 267.313C137.259 269.167 133.083 270.094 127.991 270.094H112.138V263.062H127.735C131.251 263.062 134.074 262.455 136.205 261.241C138.335 260.026 139.88 258.386 140.839 256.319C141.819 254.231 142.309 251.876 142.309 249.256C142.309 246.635 141.819 244.291 140.839 242.224C139.88 240.158 138.325 238.538 136.173 237.366C134.021 236.173 131.165 235.577 127.607 235.577H113.673V294H105.746ZM170.801 228.545V294H162.875V228.545H170.801Z" fill="black"/>
</svg>
