<svg width="191" height="428" viewBox="0 0 191 428" fill="none" xmlns="http://www.w3.org/2000/svg">
<path d="M15 0.5H176C184.008 0.5 190.5 6.99187 190.5 15V413C190.5 421.008 184.008 427.5 176 427.5H15C6.99187 427.5 0.5 421.008 0.5 413V15C0.5 6.99188 6.99187 0.5 15 0.5Z" fill="#A1B6D4" stroke="#7BA7EA"/>
<path d="M15 0.5H176C184.008 0.5 190.5 6.99187 190.5 15V60.6429H0.5V15C0.5 6.99188 6.99187 0.5 15 0.5Z" fill="#05152E" stroke="#7BA7EA"/>
<path d="M0.5 366.677H190.5V412.32C190.5 420.328 184.008 426.82 176 426.82H15C6.99187 426.82 0.5 420.328 0.5 412.32V366.677Z" fill="#05152E" stroke="#7BA7EA"/>
<ellipse cx="95.5" cy="397" rx="15.5" ry="20" fill="#A1B6D4"/>
</svg>
