<svg width="79" height="68" viewBox="0 0 79 68" fill="none" xmlns="http://www.w3.org/2000/svg">
<rect width="79" height="68" rx="10" fill="#56C6F3"/>
<path d="M48.13 29.67V35.25H40.75V60H33.775V35.25H26.35V29.67H48.13ZM69.9075 31.02V37.5C67.4775 36.09 64.9575 35.385 62.3475 35.385C61.1775 35.385 60.2775 35.625 59.6475 36.105C59.0475 36.585 58.7475 37.2 58.7475 37.95C58.7475 38.7 59.1225 39.375 59.8725 39.975C60.6225 40.545 61.7475 41.16 63.2475 41.82C64.1775 42.24 64.9425 42.615 65.5425 42.945C66.1725 43.245 66.8775 43.68 67.6575 44.25C68.4675 44.79 69.0975 45.375 69.5475 46.005C70.0275 46.605 70.4325 47.355 70.7625 48.255C71.0925 49.155 71.2575 50.13 71.2575 51.18C71.2575 53.91 70.2525 56.13 68.2425 57.84C66.2325 59.52 63.5625 60.36 60.2325 60.36C56.6625 60.36 53.7525 59.73 51.5025 58.47V51.495C54.2325 53.475 57.1425 54.465 60.2325 54.465C61.2825 54.465 62.1525 54.195 62.8425 53.655C63.5325 53.085 63.8775 52.35 63.8775 51.45C63.8775 51.15 63.8325 50.865 63.7425 50.595C63.6525 50.325 63.4875 50.07 63.2475 49.83C63.0075 49.59 62.7675 49.395 62.5275 49.245C62.3175 49.065 61.9875 48.87 61.5375 48.66C61.1175 48.42 60.7575 48.225 60.4575 48.075C60.1575 47.925 59.7075 47.715 59.1075 47.445C58.5375 47.175 58.0725 46.965 57.7125 46.815C55.7625 45.915 54.1875 44.805 52.9875 43.485C51.8175 42.165 51.2325 40.41 51.2325 38.22C51.2325 35.61 52.1925 33.51 54.1125 31.92C56.0325 30.3 58.6875 29.49 62.0775 29.49C65.1075 29.49 67.7175 30 69.9075 31.02Z" fill="#FFFCFC"/>
</svg>
